<svg width="24" height="25" viewBox="0 0 24 25" fill="none" xmlns="http://www.w3.org/2000/svg">
<rect y="0.799988" width="24" height="24" rx="12" fill="#293033"/>
<rect width="16" height="8.25806" transform="translate(4 8.79999)" fill="#293033"/>
<path fill-rule="evenodd" clip-rule="evenodd" d="M19.0024 15.3943C18.9154 15.3946 18.8284 15.395 18.7414 15.3946C18.1812 15.3921 17.6615 14.9271 17.668 14.435C17.6745 13.9241 18.1792 13.4764 18.7449 13.4789C18.8212 13.4793 18.8976 13.4811 18.974 13.4828C19.1547 13.487 19.3354 13.4911 19.5149 13.4779C19.8639 13.4518 19.973 13.2978 19.989 12.8278C20.0016 12.4586 19.8223 12.3012 19.4779 12.2883C19.3933 12.2852 19.3083 12.2834 19.2232 12.2816C18.9591 12.276 18.6942 12.2703 18.437 12.2252C18.0204 12.1526 17.679 11.7232 17.6695 11.3416C17.6605 10.9803 17.9809 10.5716 18.3964 10.464C18.5902 10.4136 18.802 10.4107 19.0047 10.4146C19.0433 10.4153 19.0806 10.4161 19.1167 10.4169C19.8161 10.4318 20.0402 10.4365 19.9931 9.37706C19.974 8.94664 19.8158 8.80211 19.3777 8.80113C18.3909 8.79915 17.4041 8.80014 16.4173 8.80113C16.4022 8.80113 16.3876 8.8013 16.3734 8.80113C16.3461 8.8008 16.3202 8.80015 16.2952 8.80113H14.6189C14.3241 8.80211 14.1588 8.94762 14.1513 9.23293C14.1443 9.51488 14.1459 9.79683 14.1475 10.0788C14.1481 10.1996 14.1488 10.3204 14.1488 10.4413L14.1158 11.4438C14.1053 11.8056 13.9756 11.9601 13.6136 12.004C13.183 12.0563 12.8867 11.9369 12.8536 11.4961C12.852 11.4739 12.8474 11.4519 12.8428 11.43C12.8377 11.4055 12.8326 11.3811 12.8316 11.3564C12.8161 11.0452 12.801 10.734 12.7859 10.4229C12.7668 10.0302 12.7478 9.63768 12.7279 9.24527C12.7139 8.9649 12.5462 8.8036 12.2643 8.80113C12.0976 8.79965 11.9309 8.80014 11.7637 8.80113C11.4538 8.80261 11.3051 8.93281 11.2805 9.23934C11.2633 9.45535 11.2534 9.67178 11.2434 9.88822C11.2382 9.9997 11.2331 10.1112 11.227 10.2226C11.2209 10.335 11.2153 10.4474 11.2098 10.5599C11.1947 10.8652 11.1796 11.1704 11.1544 11.4749C11.1253 11.8268 10.9796 11.9833 10.6347 12.009C10.152 12.045 9.88969 11.9078 9.88569 11.3845C9.88279 11.0301 9.87617 10.6757 9.86955 10.3213C9.86587 10.1243 9.86219 9.9274 9.85915 9.73048C9.85806 9.66344 9.85875 9.5964 9.85945 9.52936C9.86003 9.47349 9.86061 9.41762 9.86015 9.36176C9.86015 9.35855 9.8604 9.35546 9.86065 9.35238C9.8609 9.34929 9.86115 9.34621 9.86115 9.343C9.86115 9.32474 9.86015 9.30647 9.85815 9.2887C9.85815 9.27143 9.85765 9.25415 9.85665 9.23687C9.84513 8.98859 9.69393 8.80656 9.46763 8.80113C9.45413 8.80088 9.44064 8.801 9.42708 8.80113C9.41348 8.80125 9.38602 8.80113 9.38602 8.80113C9.39416 8.80113 9.39459 8.80113 9.38602 8.80113H4.55063C4.54206 8.80113 4.5343 8.80113 4.52659 8.80113C4.51132 8.80113 4.49625 8.80112 4.47553 8.80113C4.46174 8.80137 4.44808 8.80125 4.43448 8.80113C4.42092 8.801 4.40742 8.80088 4.39392 8.80113C4.16762 8.80656 4.01292 8.98813 4.0014 9.23646C4.0004 9.25374 4.0004 9.49321 4.0004 9.49321L4 16.3742L4.0004 16.4745C4.0004 16.4918 4.0004 16.5623 4.0014 16.5796C4.01291 16.8279 4.16762 17.0106 4.39392 17.0161C4.40742 17.0163 4.42554 17.0162 4.44373 17.0161C4.46197 17.016 4.48027 17.0158 4.49406 17.0161L5.55701 17.0161C5.86237 17.0151 6.02356 16.8562 6.03608 16.5556C6.03754 16.5202 6.03872 16.4849 6.0399 16.4495C6.04399 16.3273 6.04808 16.2052 6.06361 16.0842C6.11318 15.7041 6.31322 15.5062 6.69473 15.4623C6.85953 15.445 7.02769 15.4441 7.18951 15.4627C7.57102 15.5066 7.74675 15.7041 7.79632 16.0842C7.81185 16.2051 7.81594 16.3273 7.82003 16.4495C7.82121 16.4849 7.82239 16.5202 7.82385 16.5555C7.83637 16.8561 7.99758 17.0136 8.30299 17.0146C8.70652 17.0161 9.03756 17.0171 9.4411 17.0146H9.58929C9.58929 17.0146 10.3578 17.0166 10.7418 17.0146C11.0047 17.0131 11.1894 16.8394 11.2079 16.5886C11.2273 16.3233 11.2433 16.0577 11.2592 15.7922C11.2763 15.5083 11.2934 15.2245 11.3146 14.941C11.3165 14.9151 11.3184 14.8892 11.3204 14.8633C11.3391 14.6097 11.3579 14.3541 11.4147 14.1083C11.5063 13.7139 11.8643 13.5278 12.2263 13.6581C12.4771 13.7484 12.5908 13.9567 12.6278 14.1941C12.674 14.4892 12.6976 14.788 12.7212 15.086C12.7234 15.1145 12.7257 15.143 12.7279 15.1715C12.7452 15.387 12.7596 15.6027 12.774 15.8184C12.7906 16.0672 12.8072 16.3159 12.8281 16.5644C12.8526 16.8547 13.0193 17.0136 13.3192 17.0146C13.4755 17.0153 13.6319 17.015 13.7883 17.0148C13.8664 17.0147 13.9446 17.0146 14.0227 17.0146H17.0697C17.3314 17.0146 17.593 17.0149 17.8547 17.0151C18.3781 17.0157 18.9014 17.0162 19.4248 17.0146C19.7913 17.0136 19.915 16.9065 19.969 16.559C20.0046 16.3319 20.0106 16.0925 19.9815 15.8645C19.938 15.519 19.7778 15.401 19.4198 15.3951V15.3956C19.2805 15.3931 19.1415 15.3937 19.0024 15.3943ZM6.71948 13.4799C6.47966 13.4138 6.32546 13.2612 6.26488 13.0263C6.19629 12.7583 6.19729 12.4882 6.34598 12.2449C6.49818 11.9961 6.79658 11.9014 7.12151 11.9754C7.37434 12.0331 7.55308 12.2365 7.59463 12.5174C7.60163 12.564 7.60508 12.6113 7.60853 12.6586C7.61026 12.6823 7.61198 12.706 7.61416 12.7296C7.63919 13.3738 7.12251 13.5915 6.71948 13.4804V13.4799Z" fill="#E0E0E0"/>
</svg>
