<svg width="24" height="25" viewBox="0 0 24 25" fill="none" xmlns="http://www.w3.org/2000/svg">
<path d="M10.6 16.8L17.65 9.75001L16.25 8.35001L10.6 14L7.75 11.15L6.35 12.55L10.6 16.8ZM12 22.2C10.6167 22.2 9.31667 21.9375 8.1 21.4125C6.88333 20.8875 5.825 20.175 4.925 19.275C4.025 18.375 3.3125 17.3167 2.7875 16.1C2.2625 14.8833 2 13.5833 2 12.2C2 10.8167 2.2625 9.51668 2.7875 8.30001C3.3125 7.08335 4.025 6.02501 4.925 5.12501C5.825 4.22501 6.88333 3.51251 8.1 2.98751C9.31667 2.46251 10.6167 2.20001 12 2.20001C13.3833 2.20001 14.6833 2.46251 15.9 2.98751C17.1167 3.51251 18.175 4.22501 19.075 5.12501C19.975 6.02501 20.6875 7.08335 21.2125 8.30001C21.7375 9.51668 22 10.8167 22 12.2C22 13.5833 21.7375 14.8833 21.2125 16.1C20.6875 17.3167 19.975 18.375 19.075 19.275C18.175 20.175 17.1167 20.8875 15.9 21.4125C14.6833 21.9375 13.3833 22.2 12 22.2ZM12 20.2C14.2333 20.2 16.125 19.425 17.675 17.875C19.225 16.325 20 14.4333 20 12.2C20 9.96668 19.225 8.07501 17.675 6.52501C16.125 4.97501 14.2333 4.20001 12 4.20001C9.76667 4.20001 7.875 4.97501 6.325 6.52501C4.775 8.07501 4 9.96668 4 12.2C4 14.4333 4.775 16.325 6.325 17.875C7.875 19.425 9.76667 20.2 12 20.2Z" fill="#80C838"/>
</svg>
