<svg width="180" height="27" viewBox="0 0 180 27" fill="none" xmlns="http://www.w3.org/2000/svg">
<g clip-path="url(#clip0_118_1728)">
<path d="M108.115 24.5115V25.5536C108.34 25.5536 108.54 25.4758 108.707 25.3359V24.2938C108.54 24.4416 108.34 24.5115 108.115 24.5115ZM108.707 24.2938V25.3359C108.866 25.1803 108.949 24.9936 108.949 24.7759V23.7339C108.949 23.9516 108.866 24.1382 108.707 24.2938ZM105.612 22.9562V23.9983V24.7759V23.7339V22.9562ZM105.612 23.7339V24.7759C105.612 24.9936 105.688 25.1803 105.846 25.3359V24.2938C105.688 24.1382 105.612 23.9516 105.612 23.7339ZM105.846 24.2938V25.3359C106.013 25.4758 106.213 25.5536 106.446 25.5536V24.5115C106.213 24.5115 106.013 24.4416 105.846 24.2938ZM106.446 24.5115V25.5536H108.115V24.5115H106.446ZM108.115 24.5115C108.34 24.5115 108.54 24.4416 108.707 24.2938C108.866 24.1382 108.949 23.9516 108.949 23.7339V22.9562C108.949 22.7463 108.866 22.5596 108.707 22.4118C108.54 22.2563 108.34 22.1786 108.115 22.1786H106.446C106.213 22.1786 106.013 22.2563 105.846 22.4118C105.688 22.5596 105.612 22.7463 105.612 22.9562V23.7339C105.612 23.9516 105.688 24.1382 105.846 24.2938C106.013 24.4416 106.213 24.5115 106.446 24.5115H108.115Z" fill="#5A5A5A"/>
<path d="M108.115 24.5115V25.5536M108.115 24.5115C108.34 24.5115 108.54 24.4416 108.707 24.2938M108.115 24.5115H106.446M108.115 25.5536C108.34 25.5536 108.54 25.4758 108.707 25.3359M108.115 25.5536H106.446M108.707 24.2938V25.3359M108.707 24.2938C108.866 24.1382 108.949 23.9516 108.949 23.7339M106.446 24.5115C106.213 24.5115 106.013 24.4416 105.846 24.2938M106.446 24.5115V25.5536M108.707 25.3359C108.866 25.1803 108.949 24.9936 108.949 24.7759V23.7339M106.446 25.5536C106.213 25.5536 106.013 25.4758 105.846 25.3359M108.949 23.7339V22.9562C108.949 22.7463 108.866 22.5596 108.707 22.4118C108.54 22.2563 108.34 22.1786 108.115 22.1786H106.446C106.213 22.1786 106.013 22.2563 105.846 22.4118C105.688 22.5596 105.612 22.7463 105.612 22.9562M105.612 22.9562V23.9983V24.7759M105.612 22.9562V23.7339M105.612 24.7759V23.7339M105.612 24.7759C105.612 24.9936 105.688 25.1803 105.846 25.3359M105.612 23.7339C105.612 23.9516 105.688 24.1382 105.846 24.2938M105.846 25.3359V24.2938" stroke="#5A5A5A" stroke-width="3" stroke-linecap="round" stroke-linejoin="round"/>
<path d="M106.446 24.5115C106.213 24.5115 106.013 24.4416 105.846 24.2938C105.688 24.1382 105.612 23.9516 105.612 23.7339V22.9562C105.612 22.7463 105.688 22.5596 105.846 22.4118C106.013 22.2563 106.213 22.1786 106.446 22.1786H108.115C108.34 22.1786 108.54 22.2563 108.707 22.4118C108.866 22.5596 108.949 22.7463 108.949 22.9562V23.7339C108.949 23.9516 108.866 24.1382 108.707 24.2938C108.54 24.4416 108.34 24.5115 108.115 24.5115H106.446Z" fill="white"/>
<path d="M120.684 22.3368V25.0715C121.1 25.0715 121.471 24.8673 121.764 24.5V21.7653C121.471 22.1531 121.1 22.3368 120.684 22.3368ZM121.764 21.7653V24.5C122.073 24.0919 122.228 23.6021 122.228 23.0307V20.2959C122.228 20.8674 122.073 21.3571 121.764 21.7653ZM122.228 20.2959V23.0307V18.949V16.2143V20.2959ZM122.228 16.2143V18.949C122.228 18.3776 122.367 17.9082 122.661 17.5204V14.7857C122.367 15.1735 122.228 15.6633 122.228 16.2143ZM122.661 14.7857V17.5204C122.969 17.1123 123.34 16.9082 123.773 16.9082V14.1735C123.34 14.1735 122.969 14.3775 122.661 14.7857ZM123.773 14.1735V16.9082H129.952V14.1735H123.773ZM129.952 14.1735V16.9082C130.369 16.9082 130.74 16.7041 131.034 16.3368V13.6021C130.74 13.9898 130.369 14.1735 129.952 14.1735ZM131.034 13.6021V16.3368C131.342 15.9286 131.496 15.4388 131.496 14.8674V12.1327C131.496 12.7041 131.342 13.1939 131.034 13.6021ZM119.138 8.05104V10.7858C119.138 10.2143 119.278 9.74492 119.57 9.35716V6.62246C119.278 7.01022 119.138 7.50002 119.138 8.05104ZM119.57 6.62246V9.35716C119.88 8.94899 120.251 8.74491 120.684 8.74491V6.01022C120.251 6.01022 119.88 6.2143 119.57 6.62246ZM120.684 6.01022V8.74491H129.952V6.01022H120.684ZM129.952 6.01022V8.74491C130.369 8.74491 130.74 8.54083 131.034 8.17349V5.43879C130.74 5.82655 130.369 6.01022 129.952 6.01022ZM131.034 5.43879V8.17349C131.342 7.76532 131.496 7.27552 131.496 6.7041V3.9694C131.496 4.54083 131.342 5.03063 131.034 5.43879ZM112.959 12.1327V14.8674C112.959 15.4388 113.098 15.9286 113.392 16.3368V13.6021C113.098 13.1939 112.959 12.7041 112.959 12.1327ZM113.392 13.6021V16.3368C113.7 16.7041 114.071 16.9082 114.504 16.9082V14.1735C114.071 14.1735 113.7 13.9898 113.392 13.6021ZM114.504 14.1735V16.9082C114.921 16.9082 115.292 17.1123 115.586 17.5204V14.7857C115.292 14.3775 114.921 14.1735 114.504 14.1735ZM115.586 14.7857V17.5204C115.894 17.9082 116.049 18.3776 116.049 18.949V16.2143C116.049 15.6633 115.894 15.1735 115.586 14.7857ZM116.049 20.2959V23.0307C116.049 23.6021 116.188 24.0919 116.481 24.5V21.7653C116.188 21.3571 116.049 20.8674 116.049 20.2959ZM116.481 21.7653V24.5C116.791 24.8673 117.161 25.0715 117.593 25.0715V22.3368C117.161 22.3368 116.791 22.1531 116.481 21.7653ZM117.593 22.3368V25.0715H120.684V22.3368H117.593ZM120.684 22.3368C121.1 22.3368 121.471 22.1531 121.764 21.7653C122.073 21.3571 122.228 20.8674 122.228 20.2959V16.2143C122.228 15.6633 122.367 15.1735 122.661 14.7857C122.969 14.3775 123.34 14.1735 123.773 14.1735H129.952C130.369 14.1735 130.74 13.9898 131.034 13.6021C131.342 13.1939 131.496 12.7041 131.496 12.1327C131.496 11.5817 131.342 11.0918 131.034 10.7041C130.74 10.2959 130.369 10.0919 129.952 10.0919H120.684C120.251 10.0919 119.88 9.90818 119.57 9.52042C119.278 9.11226 119.138 8.62247 119.138 8.05104C119.138 7.50002 119.278 7.01022 119.57 6.62246C119.88 6.2143 120.251 6.01022 120.684 6.01022H129.952C130.369 6.01022 130.74 5.82655 131.034 5.43879C131.342 5.03063 131.496 4.54083 131.496 3.9694C131.496 3.41838 131.342 2.92859 131.034 2.54083C130.74 2.13267 130.369 1.92859 129.952 1.92859H119.138C118.288 1.92859 117.547 2.33675 116.945 3.13267C116.342 3.92859 116.049 4.88777 116.049 6.01022V8.05104C116.049 8.62247 115.894 9.11226 115.586 9.52042C115.292 9.90818 114.921 10.0919 114.504 10.0919C114.071 10.0919 113.7 10.2959 113.392 10.7041C113.098 11.0918 112.959 11.5817 112.959 12.1327C112.959 12.7041 113.098 13.1939 113.392 13.6021C113.7 13.9898 114.071 14.1735 114.504 14.1735C114.921 14.1735 115.292 14.3775 115.586 14.7857C115.894 15.1735 116.049 15.6633 116.049 16.2143V20.2959C116.049 20.8674 116.188 21.3571 116.481 21.7653C116.791 22.1531 117.161 22.3368 117.593 22.3368H120.684ZM151.579 22.3368V25.0715C152.413 25.0715 153.14 24.6633 153.758 23.8878V21.1531C153.14 21.949 152.413 22.3368 151.579 22.3368ZM153.758 21.1531V23.8878C154.36 23.0919 154.669 22.1327 154.669 20.9898V18.2551C154.669 19.398 154.36 20.3572 153.758 21.1531ZM148.49 8.09185V10.8266V16.9082V14.1735V8.09185ZM133.041 8.09185V10.8266V20.9898V18.2551V8.09185ZM133.041 18.2551V20.9898C133.041 22.1123 133.335 23.0714 133.937 23.8878V21.1531C133.335 20.3572 133.041 19.3776 133.041 18.2551ZM133.937 21.1531V23.8878C134.54 24.6633 135.266 25.0715 136.131 25.0715V22.3368C135.266 22.3368 134.54 21.949 133.937 21.1531ZM136.131 22.3368V25.0715H151.579V22.3368H136.131ZM151.579 22.3368C152.413 22.3368 153.14 21.949 153.758 21.1531C154.36 20.3572 154.669 19.398 154.669 18.2551V8.05104C154.669 7.50002 154.514 7.01022 154.205 6.62246C153.912 6.2143 153.541 6.01022 153.124 6.01022H150.035C149.602 6.01022 149.231 6.2143 148.922 6.62246C148.629 7.01022 148.49 7.50002 148.49 8.09185V14.1735C148.49 14.7449 148.335 15.2347 148.026 15.6429C147.732 16.0306 147.362 16.2143 146.945 16.2143H140.765C140.333 16.2143 139.962 16.0306 139.653 15.6429C139.359 15.2347 139.221 14.7449 139.221 14.1735V8.05104C139.221 7.50002 139.067 7.01022 138.757 6.62246C138.464 6.2143 138.093 6.01022 137.676 6.01022H134.587C134.154 6.01022 133.783 6.2143 133.474 6.62246C133.181 7.01022 133.041 7.50002 133.041 8.09185V18.2551C133.041 19.3776 133.335 20.3572 133.937 21.1531C134.54 21.949 135.266 22.3368 136.131 22.3368H151.579ZM160.848 22.3368V25.0715C161.265 25.0715 161.635 24.8673 161.929 24.5V21.7653C161.635 22.1531 161.265 22.3368 160.848 22.3368ZM161.929 21.7653V24.5C162.238 24.0919 162.393 23.6021 162.393 23.0307V20.2959C162.393 20.8674 162.238 21.3571 161.929 21.7653ZM162.393 14.1735V16.9082C162.393 16.3368 162.532 15.8674 162.826 15.4796V12.7449C162.532 13.1327 162.393 13.6225 162.393 14.1735ZM162.826 12.7449V15.4796C163.134 15.0714 163.505 14.8674 163.938 14.8674V12.1327C163.505 12.1327 163.134 12.3367 162.826 12.7449ZM163.938 12.1327V14.8674H170.117V12.1327H163.938ZM170.117 12.1327V14.8674C170.533 14.8674 170.904 15.0714 171.198 15.4796V12.7449C170.904 12.3367 170.533 12.1327 170.117 12.1327ZM171.198 12.7449V15.4796C171.507 15.8674 171.661 16.3368 171.661 16.9082V14.1735C171.661 13.6225 171.507 13.1327 171.198 12.7449ZM171.661 14.1735V16.9082V23.0307V20.2959V14.1735ZM171.661 20.2959V23.0307C171.661 23.6021 171.801 24.0919 172.094 24.5V21.7653C171.801 21.3571 171.661 20.8674 171.661 20.2959ZM172.094 21.7653V24.5C172.403 24.8673 172.773 25.0715 173.206 25.0715V22.3368C172.773 22.3368 172.403 22.1531 172.094 21.7653ZM173.206 22.3368V25.0715H176.296V22.3368H173.206ZM176.296 22.3368V25.0715C176.713 25.0715 177.084 24.8673 177.377 24.5V21.7653C177.084 22.1531 176.713 22.3368 176.296 22.3368ZM177.377 21.7653V24.5C177.687 24.0919 177.841 23.6021 177.841 23.0307V20.2959C177.841 20.8674 177.687 21.3571 177.377 21.7653ZM156.213 10.0919V12.8266V23.0307V20.2959V10.0919ZM156.213 20.2959V23.0307C156.213 23.6021 156.353 24.0919 156.646 24.5V21.7653C156.353 21.3571 156.213 20.8674 156.213 20.2959ZM156.646 21.7653V24.5C156.955 24.8673 157.325 25.0715 157.758 25.0715V22.3368C157.325 22.3368 156.955 22.1531 156.646 21.7653ZM157.758 22.3368V25.0715H160.848V22.3368H157.758ZM160.848 22.3368C161.265 22.3368 161.635 22.1531 161.929 21.7653C162.238 21.3571 162.393 20.8674 162.393 20.2959V14.1735C162.393 13.6225 162.532 13.1327 162.826 12.7449C163.134 12.3367 163.505 12.1327 163.938 12.1327H170.117C170.533 12.1327 170.904 12.3367 171.198 12.7449C171.507 13.1327 171.661 13.6225 171.661 14.1735V20.2959C171.661 20.8674 171.801 21.3571 172.094 21.7653C172.403 22.1531 172.773 22.3368 173.206 22.3368H176.296C176.713 22.3368 177.084 22.1531 177.377 21.7653C177.687 21.3571 177.841 20.8674 177.841 20.2959V10.0919C177.841 8.98981 177.531 8.03063 176.929 7.2143C176.327 6.41838 175.601 6.01022 174.752 6.01022H159.303C158.453 6.01022 157.712 6.41838 157.11 7.2143C156.507 8.01022 156.213 8.96941 156.213 10.0919V20.2959C156.213 20.8674 156.353 21.3571 156.646 21.7653C156.955 22.1531 157.325 22.3368 157.758 22.3368H160.848Z" fill="#5A5A5A"/>
<path d="M120.684 22.3368V25.0715M120.684 22.3368C121.1 22.3368 121.471 22.1531 121.764 21.7653M120.684 22.3368H117.593M120.684 25.0715C121.1 25.0715 121.471 24.8673 121.764 24.5M120.684 25.0715H117.593M121.764 21.7653V24.5M121.764 21.7653C122.073 21.3571 122.228 20.8674 122.228 20.2959M117.593 22.3368C117.161 22.3368 116.791 22.1531 116.481 21.7653M117.593 22.3368V25.0715M121.764 24.5C122.073 24.0919 122.228 23.6021 122.228 23.0307M117.593 25.0715C117.161 25.0715 116.791 24.8673 116.481 24.5M122.228 23.0307V20.2959M122.228 23.0307V18.949M122.228 20.2959V16.2143M122.228 18.949V16.2143M122.228 18.949C122.228 18.3776 122.367 17.9082 122.661 17.5204M122.228 16.2143C122.228 15.6633 122.367 15.1735 122.661 14.7857M122.661 17.5204V14.7857M122.661 17.5204C122.969 17.1123 123.34 16.9082 123.773 16.9082M122.661 14.7857C122.969 14.3775 123.34 14.1735 123.773 14.1735M123.773 16.9082V14.1735M123.773 16.9082H129.952M123.773 14.1735H129.952M129.952 16.9082V14.1735M129.952 16.9082C130.369 16.9082 130.74 16.7041 131.034 16.3368M129.952 14.1735C130.369 14.1735 130.74 13.9898 131.034 13.6021M131.034 16.3368V13.6021M131.034 16.3368C131.342 15.9286 131.496 15.4388 131.496 14.8674V12.1327M131.034 13.6021C131.342 13.1939 131.496 12.7041 131.496 12.1327M131.496 12.1327C131.496 11.5817 131.342 11.0918 131.034 10.7041C130.74 10.2959 130.369 10.0919 129.952 10.0919H120.684C120.251 10.0919 119.88 9.90818 119.57 9.52043C119.278 9.11226 119.138 8.62247 119.138 8.05104M119.138 8.05104V10.7858C119.138 10.2143 119.278 9.74492 119.57 9.35716M119.138 8.05104C119.138 7.50002 119.278 7.01022 119.57 6.62246M119.57 9.35716V6.62246M119.57 9.35716C119.88 8.94899 120.251 8.74491 120.684 8.74491M119.57 6.62246C119.88 6.2143 120.251 6.01022 120.684 6.01022M120.684 8.74491V6.01022M120.684 8.74491H129.952M120.684 6.01022H129.952M129.952 8.74491V6.01022M129.952 8.74491C130.369 8.74491 130.74 8.54083 131.034 8.17349M129.952 6.01022C130.369 6.01022 130.74 5.82655 131.034 5.43879M131.034 8.17349V5.43879M131.034 8.17349C131.342 7.76532 131.496 7.27552 131.496 6.7041V3.9694M131.034 5.43879C131.342 5.03063 131.496 4.54083 131.496 3.9694M131.496 3.9694C131.496 3.41838 131.342 2.92859 131.034 2.54083C130.74 2.13267 130.369 1.92859 129.952 1.92859H119.138C118.288 1.92859 117.547 2.33675 116.945 3.13267C116.342 3.92859 116.049 4.88777 116.049 6.01022V8.05104C116.049 8.62247 115.894 9.11226 115.586 9.52043C115.292 9.90818 114.921 10.0919 114.504 10.0919C114.071 10.0919 113.7 10.2959 113.392 10.7041C113.098 11.0918 112.959 11.5817 112.959 12.1327M112.959 12.1327V14.8674C112.959 15.4388 113.098 15.9286 113.392 16.3368M112.959 12.1327C112.959 12.7041 113.098 13.1939 113.392 13.6021M113.392 16.3368V13.6021M113.392 16.3368C113.7 16.7041 114.071 16.9082 114.504 16.9082M113.392 13.6021C113.7 13.9898 114.071 14.1735 114.504 14.1735M114.504 16.9082V14.1735M114.504 16.9082C114.921 16.9082 115.292 17.1123 115.586 17.5204M114.504 14.1735C114.921 14.1735 115.292 14.3775 115.586 14.7857M115.586 17.5204V14.7857M115.586 17.5204C115.894 17.9082 116.049 18.3776 116.049 18.949V16.2143M115.586 14.7857C115.894 15.1735 116.049 15.6633 116.049 16.2143M116.049 16.2143V20.2959M116.049 20.2959V23.0307C116.049 23.6021 116.188 24.0919 116.481 24.5M116.049 20.2959C116.049 20.8674 116.188 21.3571 116.481 21.7653M116.481 24.5V21.7653M151.579 22.3368V25.0715M151.579 22.3368C152.413 22.3368 153.14 21.949 153.758 21.1531M151.579 22.3368H136.131M151.579 25.0715C152.413 25.0715 153.14 24.6633 153.758 23.8878M151.579 25.0715H136.131M153.758 21.1531V23.8878M153.758 21.1531C154.36 20.3572 154.669 19.398 154.669 18.2551M136.131 22.3368C135.266 22.3368 134.54 21.949 133.937 21.1531M136.131 22.3368V25.0715M153.758 23.8878C154.36 23.0919 154.669 22.1327 154.669 20.9898V18.2551M136.131 25.0715C135.266 25.0715 134.54 24.6633 133.937 23.8878M154.669 18.2551V8.05104C154.669 7.50002 154.514 7.01022 154.205 6.62246C153.912 6.2143 153.541 6.01022 153.124 6.01022H150.035C149.602 6.01022 149.231 6.2143 148.922 6.62246C148.629 7.01022 148.49 7.50002 148.49 8.09185M148.49 8.09185V10.8266V16.9082V14.1735M148.49 8.09185V14.1735M148.49 14.1735C148.49 14.7449 148.335 15.2347 148.026 15.6429C147.732 16.0306 147.362 16.2143 146.945 16.2143H140.765C140.333 16.2143 139.962 16.0306 139.653 15.6429C139.359 15.2347 139.221 14.7449 139.221 14.1735V8.05104C139.221 7.50002 139.067 7.01022 138.757 6.62246C138.464 6.2143 138.093 6.01022 137.676 6.01022H134.587C134.154 6.01022 133.783 6.2143 133.474 6.62246C133.181 7.01022 133.041 7.50002 133.041 8.09185M133.041 8.09185V10.8266V20.9898M133.041 8.09185V18.2551M133.041 20.9898V18.2551M133.041 20.9898C133.041 22.1123 133.335 23.0714 133.937 23.8878M133.041 18.2551C133.041 19.3776 133.335 20.3572 133.937 21.1531M133.937 23.8878V21.1531M160.848 22.3368V25.0715M160.848 22.3368C161.265 22.3368 161.635 22.1531 161.929 21.7653M160.848 22.3368H157.758M160.848 25.0715C161.265 25.0715 161.635 24.8673 161.929 24.5M160.848 25.0715H157.758M161.929 21.7653V24.5M161.929 21.7653C162.238 21.3571 162.393 20.8674 162.393 20.2959M157.758 22.3368C157.325 22.3368 156.955 22.1531 156.646 21.7653M157.758 22.3368V25.0715M161.929 24.5C162.238 24.0919 162.393 23.6021 162.393 23.0307V20.2959M157.758 25.0715C157.325 25.0715 156.955 24.8673 156.646 24.5M162.393 20.2959V14.1735M162.393 14.1735V16.9082C162.393 16.3368 162.532 15.8674 162.826 15.4796M162.393 14.1735C162.393 13.6225 162.532 13.1327 162.826 12.7449M162.826 15.4796V12.7449M162.826 15.4796C163.134 15.0714 163.505 14.8674 163.938 14.8674M162.826 12.7449C163.134 12.3367 163.505 12.1327 163.938 12.1327M163.938 14.8674V12.1327M163.938 14.8674H170.117M163.938 12.1327H170.117M170.117 14.8674V12.1327M170.117 14.8674C170.533 14.8674 170.904 15.0714 171.198 15.4796M170.117 12.1327C170.533 12.1327 170.904 12.3367 171.198 12.7449M171.198 15.4796V12.7449M171.198 15.4796C171.507 15.8674 171.661 16.3368 171.661 16.9082M171.198 12.7449C171.507 13.1327 171.661 13.6225 171.661 14.1735M171.661 16.9082V14.1735M171.661 16.9082V23.0307M171.661 14.1735V20.2959M171.661 23.0307V20.2959M171.661 23.0307C171.661 23.6021 171.801 24.0919 172.094 24.5M171.661 20.2959C171.661 20.8674 171.801 21.3571 172.094 21.7653M172.094 24.5V21.7653M172.094 24.5C172.403 24.8673 172.773 25.0715 173.206 25.0715M172.094 21.7653C172.403 22.1531 172.773 22.3368 173.206 22.3368M173.206 25.0715V22.3368M173.206 25.0715H176.296M173.206 22.3368H176.296M176.296 25.0715V22.3368M176.296 25.0715C176.713 25.0715 177.084 24.8673 177.377 24.5M176.296 22.3368C176.713 22.3368 177.084 22.1531 177.377 21.7653M177.377 24.5V21.7653M177.377 24.5C177.687 24.0919 177.841 23.6021 177.841 23.0307V20.2959M177.377 21.7653C177.687 21.3571 177.841 20.8674 177.841 20.2959M177.841 20.2959V10.0919C177.841 8.98981 177.531 8.03063 176.929 7.2143C176.327 6.41838 175.601 6.01022 174.752 6.01022H159.303C158.453 6.01022 157.712 6.41838 157.11 7.2143C156.507 8.01022 156.213 8.96941 156.213 10.0919M156.213 10.0919V12.8266V23.0307M156.213 10.0919V20.2959M156.213 23.0307V20.2959M156.213 23.0307C156.213 23.6021 156.353 24.0919 156.646 24.5M156.213 20.2959C156.213 20.8674 156.353 21.3571 156.646 21.7653M156.646 24.5V21.7653" stroke="#5A5A5A" stroke-width="4" stroke-linecap="round" stroke-linejoin="round"/>
<path d="M117.593 22.3368C117.161 22.3368 116.791 22.1531 116.481 21.7653C116.188 21.3571 116.049 20.8674 116.049 20.2959V16.2143C116.049 15.6633 115.894 15.1735 115.586 14.7857C115.292 14.3775 114.921 14.1735 114.504 14.1735C114.071 14.1735 113.7 13.9898 113.392 13.6021C113.098 13.1939 112.959 12.7041 112.959 12.1327C112.959 11.5816 113.098 11.0918 113.392 10.7041C113.7 10.2959 114.071 10.0919 114.504 10.0919C114.921 10.0919 115.292 9.90818 115.586 9.52042C115.894 9.11226 116.049 8.62247 116.049 8.05103V6.01022C116.049 4.88777 116.342 3.92858 116.945 3.13267C117.547 2.33675 118.288 1.92859 119.138 1.92859H129.952C130.369 1.92859 130.74 2.13267 131.034 2.54083C131.342 2.92859 131.496 3.41838 131.496 3.9694C131.496 4.54083 131.342 5.03063 131.034 5.43879C130.74 5.82655 130.369 6.01022 129.952 6.01022H120.684C120.251 6.01022 119.88 6.2143 119.57 6.62246C119.278 7.01022 119.138 7.50002 119.138 8.05103C119.138 8.62247 119.278 9.11226 119.57 9.52042C119.88 9.90818 120.251 10.0919 120.684 10.0919H129.952C130.369 10.0919 130.74 10.2959 131.034 10.7041C131.342 11.0918 131.496 11.5816 131.496 12.1327C131.496 12.7041 131.342 13.1939 131.034 13.6021C130.74 13.9898 130.369 14.1735 129.952 14.1735H123.773C123.34 14.1735 122.969 14.3775 122.661 14.7857C122.367 15.1735 122.228 15.6633 122.228 16.2143V20.2959C122.228 20.8674 122.073 21.3571 121.764 21.7653C121.471 22.1531 121.1 22.3368 120.684 22.3368H117.593ZM136.131 22.3368C135.266 22.3368 134.54 21.949 133.937 21.1531C133.335 20.3572 133.041 19.3776 133.041 18.2551V8.09185C133.041 7.50002 133.181 7.01022 133.474 6.62246C133.783 6.2143 134.154 6.01022 134.587 6.01022H137.676C138.093 6.01022 138.464 6.2143 138.757 6.62246C139.067 7.01022 139.221 7.50002 139.221 8.05103V14.1735C139.221 14.7449 139.359 15.2347 139.653 15.6429C139.962 16.0306 140.333 16.2143 140.765 16.2143H146.945C147.362 16.2143 147.732 16.0306 148.026 15.6429C148.335 15.2347 148.49 14.7449 148.49 14.1735V8.09185C148.49 7.50002 148.629 7.01022 148.922 6.62246C149.231 6.2143 149.602 6.01022 150.035 6.01022H153.124C153.541 6.01022 153.912 6.2143 154.205 6.62246C154.514 7.01022 154.669 7.50002 154.669 8.05103V18.2551C154.669 19.398 154.36 20.3572 153.758 21.1531C153.14 21.949 152.413 22.3368 151.579 22.3368H136.131ZM157.758 22.3368C157.325 22.3368 156.955 22.1531 156.646 21.7653C156.353 21.3571 156.213 20.8674 156.213 20.2959V10.0919C156.213 8.96941 156.507 8.01022 157.11 7.2143C157.712 6.41838 158.453 6.01022 159.303 6.01022H174.752C175.601 6.01022 176.327 6.41838 176.929 7.2143C177.531 8.03063 177.841 8.98981 177.841 10.0919V20.2959C177.841 20.8674 177.687 21.3571 177.377 21.7653C177.084 22.1531 176.713 22.3368 176.296 22.3368H173.206C172.773 22.3368 172.403 22.1531 172.094 21.7653C171.801 21.3571 171.661 20.8674 171.661 20.2959V14.1735C171.661 13.6225 171.507 13.1327 171.198 12.7449C170.904 12.3367 170.533 12.1327 170.117 12.1327H163.938C163.505 12.1327 163.134 12.3367 162.826 12.7449C162.532 13.1327 162.393 13.6225 162.393 14.1735V20.2959C162.393 20.8674 162.238 21.3571 161.929 21.7653C161.635 22.1531 161.265 22.3368 160.848 22.3368H157.758Z" fill="white"/>
<path d="M22.93 22.3406V25.0714C23.7459 25.0714 24.4528 24.6771 25.0488 23.8911V21.1602C24.4528 21.9462 23.7459 22.3406 22.93 22.3406ZM25.0488 21.1602V23.8911C25.6449 23.1051 25.9439 22.1366 25.9439 20.9886V18.2576C25.9439 19.4058 25.6449 20.3742 25.0488 21.1602ZM7.86253 14.1747V16.9056V10.7839V8.05298V14.1747ZM1.83673 18.2576V20.9886C1.83673 22.1152 2.12783 23.0837 2.70803 23.8911V21.1602C2.12783 20.3527 1.83673 19.3843 1.83673 18.2576ZM2.70803 21.1602V23.8911C3.28823 24.6771 4.00309 25.0714 4.85062 25.0714V22.3406C4.00309 22.3406 3.28823 21.9462 2.70803 21.1602ZM4.85062 22.3406V25.0714H22.93V22.3406H4.85062ZM22.93 22.3406C23.7459 22.3406 24.4528 21.9462 25.0488 21.1602C25.6449 20.3742 25.9439 19.4058 25.9439 18.2576V8.05298C25.9439 7.50037 25.7954 7.02286 25.4964 6.61778C25.1973 6.21271 24.8449 6.01152 24.4369 6.01152H21.423C20.9993 6.01152 20.6388 6.21271 20.3399 6.61778C20.0567 7.02286 19.9161 7.5111 19.9161 8.08518V14.1747C19.9161 14.7488 19.7676 15.237 19.4686 15.6421C19.1716 16.0257 18.8191 16.2161 18.4091 16.2161C17.9854 16.2161 17.625 16.0257 17.3279 15.6421C17.0448 15.237 16.9042 14.7488 16.9042 14.1747V8.05298C16.9042 7.50037 16.7557 7.02286 16.4567 6.61778C16.1577 6.21271 15.8052 6.01152 15.3973 6.01152H12.3834C11.9596 6.01152 11.5992 6.21271 11.3001 6.61778C11.017 7.02286 10.8764 7.5111 10.8764 8.08518V14.1747C10.8764 14.7488 10.7279 15.237 10.4289 15.6421C10.1299 16.0257 9.77739 16.2161 9.36946 16.2161C8.9457 16.2161 8.58531 16.0257 8.2863 15.6421C8.00313 15.237 7.86253 14.7488 7.86253 14.1747V8.05298C7.86253 7.50037 7.71401 7.02286 7.415 6.61778C7.11797 6.21271 6.76549 6.01152 6.35559 6.01152H3.34367C2.91991 6.01152 2.55951 6.21271 2.26049 6.61778C1.97732 7.02286 1.83673 7.5111 1.83673 8.08518V18.2576C1.83673 19.3843 2.12783 20.3527 2.70803 21.1602C3.28823 21.9462 4.00309 22.3406 4.85062 22.3406H22.93ZM45.5302 22.3406V25.0714C46.3461 25.0714 47.053 24.6771 47.649 23.8911V21.1602C47.053 21.9462 46.3461 22.3406 45.5302 22.3406ZM47.649 21.1602V23.8911C48.245 23.1051 48.5441 22.1366 48.5441 20.9886V18.2576C48.5441 19.4058 48.245 20.3742 47.649 21.1602ZM27.4508 10.0944V12.8253V20.9886V18.2576V10.0944ZM27.4508 18.2576V20.9886C27.4508 22.1152 27.7419 23.0837 28.3221 23.8911V21.1602C27.7419 20.3527 27.4508 19.3843 27.4508 18.2576ZM28.3221 21.1602V23.8911C28.9023 24.6771 29.6152 25.0714 30.4627 25.0714V22.3406C29.6152 22.3406 28.9023 21.9462 28.3221 21.1602ZM30.4627 22.3406V25.0714H45.5302V22.3406H30.4627ZM45.5302 22.3406C46.3461 22.3406 47.053 21.9462 47.649 21.1602C48.245 20.3742 48.5441 19.4058 48.5441 18.2576V10.0944C48.5441 8.98921 48.245 8.03152 47.649 7.22406C47.0688 6.41659 46.3618 6.01152 45.5302 6.01152H30.4627C29.631 6.01152 28.9182 6.41659 28.3221 7.22406C27.7419 8.01006 27.4508 8.96775 27.4508 10.0944V18.2576C27.4508 19.3843 27.7419 20.3527 28.3221 21.1602C28.9023 21.9462 29.6152 22.3406 30.4627 22.3406H45.5302ZM33.4766 12.1359V14.8668C33.4766 14.3115 33.6172 13.834 33.9004 13.4316V10.7007C33.6172 11.1031 33.4766 11.5806 33.4766 12.1359ZM33.9004 10.7007V13.4316C34.1994 13.0266 34.5598 12.8253 34.9836 12.8253V10.0944C34.5598 10.0944 34.1994 10.2956 33.9004 10.7007ZM34.9836 10.0944V12.8253H41.0113V10.0944H34.9836ZM41.0113 10.0944V12.8253C41.4193 12.8253 41.7718 13.0266 42.0708 13.4316V10.7007C41.7718 10.2956 41.4193 10.0944 41.0113 10.0944ZM42.0708 10.7007V13.4316C42.3678 13.834 42.5163 14.3115 42.5163 14.8668V12.1359C42.5163 11.5806 42.3678 11.1031 42.0708 10.7007ZM34.9836 14.1747C34.5598 14.1747 34.1994 13.9842 33.9004 13.6006C33.6172 13.1982 33.4766 12.71 33.4766 12.1359C33.4766 11.5806 33.6172 11.1031 33.9004 10.7007C34.1994 10.2956 34.5598 10.0944 34.9836 10.0944H41.0113C41.4193 10.0944 41.7718 10.2956 42.0708 10.7007C42.3678 11.1031 42.5163 11.5806 42.5163 12.1359C42.5163 12.71 42.3678 13.1982 42.0708 13.6006C41.7718 13.9842 41.4193 14.1747 41.0113 14.1747H34.9836ZM52.6174 21.7665V24.4974C52.9164 24.0923 53.0649 23.6041 53.0649 23.03V20.2991C53.0649 20.8731 52.9164 21.3614 52.6174 21.7665ZM53.0649 20.2991V23.03V18.9471V16.2161V20.2991ZM53.0649 16.2161V18.9471C53.0649 18.3944 53.2055 17.9169 53.4887 17.5118V14.781C53.2055 15.1861 53.0649 15.6636 53.0649 16.2161ZM53.4887 14.781V17.5118C53.7877 17.1067 54.1481 16.9056 54.5719 16.9056V14.1747C54.1481 14.1747 53.7877 14.3759 53.4887 14.781ZM54.5719 14.1747V16.9056H66.6254V14.1747H54.5719ZM66.6254 14.1747V16.9056C67.0334 16.9056 67.3858 16.7151 67.6849 16.3315V13.6006C67.3858 13.9842 67.0334 14.1747 66.6254 14.1747ZM67.6849 13.6006V16.3315C67.9819 15.9291 68.1304 15.4408 68.1304 14.8668V12.1359C68.1304 12.71 67.9819 13.1982 67.6849 13.6006ZM68.1304 12.1359V14.8668V12.8253V10.0944V12.1359ZM50.051 20.2991V23.03C50.051 23.6041 50.1916 24.0923 50.4748 24.4974V21.7665C50.1916 21.3614 50.051 20.8731 50.051 20.2991ZM50.4748 21.7665V24.4974C50.7738 24.881 51.1342 25.0714 51.558 25.0714V22.3406C51.1342 22.3406 50.7738 22.15 50.4748 21.7665ZM51.558 22.3406V25.0714C51.9659 25.0714 52.3184 24.881 52.6174 24.4974V21.7665C52.3184 22.15 51.9659 22.3406 51.558 22.3406ZM52.6174 21.7665C52.9164 21.3614 53.0649 20.8731 53.0649 20.2991V16.2161C53.0649 15.6636 53.2055 15.1861 53.4887 14.781C53.7877 14.3759 54.1481 14.1747 54.5719 14.1747H66.6254C67.0334 14.1747 67.3858 13.9842 67.6849 13.6006C67.9819 13.1982 68.1304 12.71 68.1304 12.1359V10.0944C68.1304 8.98921 67.8334 8.03152 67.2373 7.22406C66.6571 6.41659 65.9502 6.01152 65.1185 6.01152H60.5976C60.1739 6.01152 59.8134 6.21271 59.5144 6.61778C59.2313 7.02286 59.0907 7.5111 59.0907 8.08518V8.05298C59.0907 8.62706 58.9422 9.11529 58.6432 9.52037C58.3442 9.904 57.9917 10.0944 57.5837 10.0944C57.16 10.0944 56.7996 9.904 56.5006 9.52037C56.2174 9.11529 56.0768 8.62706 56.0768 8.05298C56.0768 7.50037 55.9283 7.02286 55.6313 6.61778C55.3323 6.21271 54.9798 6.01152 54.5719 6.01152H51.558C51.1342 6.01152 50.7738 6.21271 50.4748 6.61778C50.1916 7.02286 50.051 7.5111 50.051 8.08518V20.2991C50.051 20.8731 50.1916 21.3614 50.4748 21.7665C50.7738 22.15 51.1342 22.3406 51.558 22.3406C51.9659 22.3406 52.3184 22.15 52.6174 21.7665ZM74.1582 22.3406V25.0714C74.5661 25.0714 74.9186 24.881 75.2176 24.4974V21.7665C74.9186 22.15 74.5661 22.3406 74.1582 22.3406ZM75.2176 21.7665V24.4974C75.5166 24.0923 75.6651 23.6041 75.6651 23.03V20.2991C75.6651 20.8731 75.5166 21.3614 75.2176 21.7665ZM72.6512 17.2383V19.9691C72.6512 19.6929 72.7225 19.4567 72.8631 19.2663V16.5354C72.7225 16.7258 72.6512 16.9619 72.6512 17.2383ZM72.8631 16.5354V19.2663C73.0037 19.0544 73.1859 18.9471 73.4057 18.9471V16.2161C73.1859 16.2161 73.0037 16.3234 72.8631 16.5354ZM73.4057 16.2161V18.9471H74.1582V16.2161H73.4057ZM74.1582 16.2161V18.9471C74.5661 18.9471 74.9186 18.7566 75.2176 18.3729V15.6421C74.9186 16.0257 74.5661 16.2161 74.1582 16.2161ZM75.2176 15.6421V18.3729C75.5166 17.9679 75.6651 17.4796 75.6651 16.9056V14.1747C75.6651 14.7488 75.5166 15.237 75.2176 15.6421ZM75.6651 14.1747V16.9056V6.70094V3.97005V14.1747ZM69.6373 4.00225V6.73314V20.9886V18.2576V4.00225ZM69.6373 18.2576V20.9886C69.6373 22.1152 69.9284 23.0837 70.5087 23.8911V21.1602C69.9284 20.3527 69.6373 19.3843 69.6373 18.2576ZM70.5087 21.1602V23.8911C71.0888 24.6771 71.8036 25.0714 72.6512 25.0714V22.3406C71.8036 22.3406 71.0888 21.9462 70.5087 21.1602ZM72.6512 22.3406V25.0714H74.1582V22.3406H72.6512ZM74.1582 22.3406C74.5661 22.3406 74.9186 22.15 75.2176 21.7665C75.5166 21.3614 75.6651 20.8731 75.6651 20.2991C75.6651 19.7465 75.5166 19.269 75.2176 18.8639C74.9186 18.4589 74.5661 18.2576 74.1582 18.2576H73.4057C73.1859 18.2576 73.0037 18.1611 72.8631 17.9705C72.7225 17.7801 72.6512 17.536 72.6512 17.2383C72.6512 16.9619 72.7225 16.7258 72.8631 16.5354C73.0037 16.3234 73.1859 16.2161 73.4057 16.2161H74.1582C74.5661 16.2161 74.9186 16.0257 75.2176 15.6421C75.5166 15.237 75.6651 14.7488 75.6651 14.1747V3.97005C75.6651 3.41744 75.5166 2.93993 75.2176 2.53485C74.9186 2.12979 74.5661 1.92859 74.1582 1.92859H71.1443C70.7205 1.92859 70.3601 2.12979 70.0611 2.53485C69.7779 2.93993 69.6373 3.42817 69.6373 4.00225V18.2576C69.6373 19.3843 69.9284 20.3527 70.5087 21.1602C71.0888 21.9462 71.8036 22.3406 72.6512 22.3406H74.1582ZM96.7583 22.3406V25.0714C97.166 25.0714 97.5187 24.881 97.8181 24.4974V21.7665C97.5187 22.15 97.166 22.3406 96.7583 22.3406ZM97.8181 21.7665V24.4974C98.1165 24.0923 98.2653 23.6041 98.2653 23.03V20.2991C98.2653 20.8731 98.1165 21.3614 97.8181 21.7665ZM77.1721 10.0944V12.8253V20.9886V18.2576V10.0944ZM77.1721 18.2576V20.9886C77.1721 22.1152 77.4632 23.0837 78.0433 23.8911V21.1602C77.4632 20.3527 77.1721 19.3843 77.1721 18.2576ZM78.0433 21.1602V23.8911C78.6235 24.6771 79.3365 25.0714 80.1839 25.0714V22.3406C79.3365 22.3406 78.6235 21.9462 78.0433 21.1602ZM80.1839 22.3406V25.0714H96.7583V22.3406H80.1839ZM96.7583 22.3406C97.166 22.3406 97.5187 22.15 97.8181 21.7665C98.1165 21.3614 98.2653 20.8731 98.2653 20.2991V3.97005C98.2653 3.41744 98.1165 2.93993 97.8181 2.53485C97.5187 2.12979 97.166 1.92859 96.7583 1.92859H93.7442C93.3208 1.92859 92.9599 2.12979 92.6633 2.53485C92.3804 2.93993 92.2399 3.42817 92.2399 4.00225V3.97005C92.2399 4.54413 92.0911 5.03236 91.792 5.43744C91.493 5.82105 91.1405 6.01152 90.7326 6.01152H80.1839C79.3523 6.01152 78.6394 6.41659 78.0433 7.22406C77.4632 8.01006 77.1721 8.96775 77.1721 10.0944V18.2576C77.1721 19.3843 77.4632 20.3527 78.0433 21.1602C78.6235 21.9462 79.3365 22.3406 80.1839 22.3406H96.7583ZM83.1978 12.1359V14.8668C83.1978 14.3115 83.3384 13.834 83.6216 13.4316V10.7007C83.3384 11.1031 83.1978 11.5806 83.1978 12.1359ZM83.6216 10.7007V13.4316C83.9206 13.0266 84.2811 12.8253 84.7048 12.8253V10.0944C84.2811 10.0944 83.9206 10.2956 83.6216 10.7007ZM84.7048 10.0944V12.8253H93.7442V10.0944H84.7048ZM93.7442 10.0944V12.8253C94.1519 12.8253 94.5046 13.0266 94.804 13.4316V10.7007C94.5046 10.2956 94.1519 10.0944 93.7442 10.0944ZM94.804 10.7007V13.4316C95.1034 13.834 95.2512 14.3115 95.2512 14.8668V12.1359C95.2512 11.5806 95.1034 11.1031 94.804 10.7007ZM95.2512 12.1359V14.8668V16.9056V14.1747V12.1359ZM86.2117 16.2161C85.3801 16.2161 84.6652 15.8218 84.0692 15.0358C83.489 14.2283 83.1978 13.2626 83.1978 12.1359C83.1978 11.5806 83.3384 11.1031 83.6216 10.7007C83.9206 10.2956 84.2811 10.0944 84.7048 10.0944H93.7442C94.1519 10.0944 94.5046 10.2956 94.804 10.7007C95.1034 11.1031 95.2512 11.5806 95.2512 12.1359V14.1747C95.2512 14.7488 95.1034 15.237 94.804 15.6421C94.5046 16.0257 94.1519 16.2161 93.7442 16.2161H86.2117Z" fill="#5A5A5A"/>
<path d="M22.93 22.3406V25.0714M22.93 22.3406C23.7459 22.3406 24.4528 21.9462 25.0488 21.1602M22.93 22.3406H4.85062M22.93 25.0714C23.7459 25.0714 24.4528 24.6771 25.0488 23.8911M22.93 25.0714H4.85062M25.0488 21.1602V23.8911M25.0488 21.1602C25.6449 20.3742 25.9439 19.4058 25.9439 18.2576M4.85062 22.3406C4.00309 22.3406 3.28823 21.9462 2.70803 21.1602M4.85062 22.3406V25.0714M25.0488 23.8911C25.6449 23.1051 25.9439 22.1366 25.9439 20.9886V18.2576M4.85062 25.0714C4.00309 25.0714 3.28823 24.6771 2.70803 23.8911M25.9439 18.2576V8.05298C25.9439 7.50037 25.7954 7.02286 25.4964 6.61778C25.1973 6.21271 24.8449 6.01152 24.4369 6.01152H21.423C20.9993 6.01152 20.6388 6.21271 20.3399 6.61778C20.0567 7.02286 19.9161 7.5111 19.9161 8.08518V14.1747C19.9161 14.7488 19.7676 15.237 19.4686 15.6421C19.1716 16.0257 18.8191 16.2161 18.4091 16.2161C17.9854 16.2161 17.625 16.0257 17.3279 15.6421C17.0448 15.237 16.9042 14.7488 16.9042 14.1747V8.05298C16.9042 7.50037 16.7557 7.02286 16.4567 6.61778C16.1577 6.21271 15.8052 6.01152 15.3973 6.01152H12.3834C11.9596 6.01152 11.5992 6.21271 11.3001 6.61778C11.017 7.02286 10.8764 7.5111 10.8764 8.08518V14.1747C10.8764 14.7488 10.7279 15.237 10.4289 15.6421C10.1299 16.0257 9.77739 16.2161 9.36946 16.2161C8.9457 16.2161 8.58531 16.0257 8.2863 15.6421C8.00313 15.237 7.86253 14.7488 7.86253 14.1747M7.86253 14.1747V16.9056V10.7839V8.05298M7.86253 14.1747V8.05298M7.86253 8.05298C7.86253 7.50037 7.71401 7.02286 7.415 6.61778C7.11797 6.21271 6.76549 6.01152 6.35559 6.01152H3.34367C2.91991 6.01152 2.55951 6.21271 2.26049 6.61778C1.97732 7.02286 1.83673 7.5111 1.83673 8.08518V18.2576M1.83673 18.2576V20.9886C1.83673 22.1152 2.12783 23.0837 2.70803 23.8911M1.83673 18.2576C1.83673 19.3843 2.12783 20.3527 2.70803 21.1602M2.70803 23.8911V21.1602M45.5302 22.3406V25.0714M45.5302 22.3406C46.3461 22.3406 47.053 21.9462 47.649 21.1602M45.5302 22.3406H30.4627M45.5302 25.0714C46.3461 25.0714 47.053 24.6771 47.649 23.8911M45.5302 25.0714H30.4627M47.649 21.1602V23.8911M47.649 21.1602C48.245 20.3742 48.5441 19.4058 48.5441 18.2576M30.4627 22.3406C29.6152 22.3406 28.9023 21.9462 28.3221 21.1602M30.4627 22.3406V25.0714M47.649 23.8911C48.245 23.1051 48.5441 22.1366 48.5441 20.9886V18.2576M30.4627 25.0714C29.6152 25.0714 28.9023 24.6771 28.3221 23.8911M48.5441 18.2576V10.0944C48.5441 8.98921 48.245 8.03152 47.649 7.22406C47.0688 6.41659 46.3618 6.01152 45.5302 6.01152H30.4627C29.631 6.01152 28.9182 6.41659 28.3221 7.22406C27.7419 8.01006 27.4508 8.96775 27.4508 10.0944M27.4508 10.0944V12.8253V20.9886M27.4508 10.0944V18.2576M27.4508 20.9886V18.2576M27.4508 20.9886C27.4508 22.1152 27.7419 23.0837 28.3221 23.8911M27.4508 18.2576C27.4508 19.3843 27.7419 20.3527 28.3221 21.1602M28.3221 23.8911V21.1602M33.4766 12.1359V14.8668C33.4766 14.3115 33.6172 13.834 33.9004 13.4316M33.4766 12.1359C33.4766 11.5806 33.6172 11.1031 33.9004 10.7007M33.4766 12.1359C33.4766 12.71 33.6172 13.1982 33.9004 13.6006C34.1994 13.9842 34.5598 14.1747 34.9835 14.1747H41.0113C41.4193 14.1747 41.7718 13.9842 42.0708 13.6006C42.3678 13.1982 42.5163 12.71 42.5163 12.1359M33.9004 13.4316V10.7007M33.9004 13.4316C34.1994 13.0266 34.5598 12.8253 34.9835 12.8253M33.9004 10.7007C34.1994 10.2956 34.5598 10.0944 34.9835 10.0944M42.5163 12.1359V14.8668C42.5163 14.3115 42.3678 13.834 42.0708 13.4316M42.5163 12.1359C42.5163 11.5806 42.3678 11.1031 42.0708 10.7007M34.9835 12.8253V10.0944M34.9835 12.8253H41.0113M34.9835 10.0944H41.0113M41.0113 12.8253V10.0944M41.0113 12.8253C41.4193 12.8253 41.7718 13.0266 42.0708 13.4316M41.0113 10.0944C41.4193 10.0944 41.7718 10.2956 42.0708 10.7007M42.0708 13.4316V10.7007M52.6174 21.7665V24.4974M52.6174 21.7665C52.9164 21.3614 53.0649 20.8731 53.0649 20.2991M52.6174 21.7665C52.3184 22.15 51.9659 22.3406 51.558 22.3406M52.6174 24.4974C52.9164 24.0923 53.0649 23.6041 53.0649 23.03M52.6174 24.4974C52.3184 24.881 51.9659 25.0714 51.558 25.0714M53.0649 20.2991V23.03M53.0649 20.2991V16.2161M51.558 22.3406C51.1342 22.3406 50.7738 22.15 50.4748 21.7665M51.558 22.3406V25.0714M53.0649 23.03V18.9471M51.558 25.0714C51.1342 25.0714 50.7738 24.881 50.4748 24.4974M53.0649 18.9471V16.2161M53.0649 18.9471C53.0649 18.3944 53.2055 17.9169 53.4887 17.5118M53.0649 16.2161C53.0649 15.6636 53.2055 15.1861 53.4887 14.781M53.4887 17.5118V14.781M53.4887 17.5118C53.7877 17.1067 54.1481 16.9056 54.5719 16.9056M53.4887 14.781C53.7877 14.3759 54.1481 14.1747 54.5719 14.1747M54.5719 16.9056V14.1747M54.5719 16.9056H66.6254M54.5719 14.1747H66.6254M66.6254 16.9056V14.1747M66.6254 16.9056C67.0334 16.9056 67.3858 16.7151 67.6849 16.3315M66.6254 14.1747C67.0334 14.1747 67.3858 13.9842 67.6849 13.6006M67.6849 16.3315V13.6006M67.6849 16.3315C67.9819 15.9291 68.1304 15.4408 68.1304 14.8668M67.6849 13.6006C67.9819 13.1982 68.1304 12.71 68.1304 12.1359M68.1304 14.8668V12.1359M68.1304 14.8668V12.8253V10.0944M68.1304 12.1359V10.0944M68.1304 10.0944C68.1304 8.98921 67.8334 8.03152 67.2373 7.22406C66.6571 6.41659 65.9502 6.01152 65.1185 6.01152H60.5976C60.1739 6.01152 59.8135 6.21271 59.5144 6.61778C59.2313 7.02286 59.0907 7.5111 59.0907 8.08518V8.05298C59.0907 8.62706 58.9422 9.11529 58.6432 9.52037C58.3442 9.904 57.9917 10.0944 57.5837 10.0944C57.16 10.0944 56.7996 9.904 56.5006 9.52037C56.2174 9.11529 56.0768 8.62706 56.0768 8.05298C56.0768 7.50037 55.9283 7.02286 55.6313 6.61778C55.3323 6.21271 54.9798 6.01152 54.5719 6.01152H51.558C51.1342 6.01152 50.7738 6.21271 50.4748 6.61778C50.1916 7.02286 50.051 7.5111 50.051 8.08518V20.2991M50.051 20.2991V23.03C50.051 23.6041 50.1916 24.0923 50.4748 24.4974M50.051 20.2991C50.051 20.8731 50.1916 21.3614 50.4748 21.7665M50.4748 24.4974V21.7665M74.1582 22.3406V25.0714M74.1582 22.3406C74.5661 22.3406 74.9186 22.15 75.2176 21.7665M74.1582 22.3406H72.6512M74.1582 25.0714C74.5661 25.0714 74.9186 24.881 75.2176 24.4974M74.1582 25.0714H72.6512M75.2176 21.7665V24.4974M75.2176 21.7665C75.5166 21.3614 75.6651 20.8731 75.6651 20.2991M72.6512 22.3406C71.8037 22.3406 71.0888 21.9462 70.5087 21.1602M72.6512 22.3406V25.0714M75.2176 24.4974C75.5166 24.0923 75.6651 23.6041 75.6651 23.03V20.2991M72.6512 25.0714C71.8037 25.0714 71.0888 24.6771 70.5087 23.8911M75.6651 20.2991C75.6651 19.7465 75.5166 19.269 75.2176 18.8639C74.9186 18.4589 74.5661 18.2576 74.1582 18.2576H73.4057C73.1859 18.2576 73.0037 18.1611 72.8631 17.9705C72.7225 17.7801 72.6512 17.536 72.6512 17.2383M72.6512 17.2383V19.9691C72.6512 19.6929 72.7225 19.4567 72.8631 19.2663M72.6512 17.2383C72.6512 16.9619 72.7225 16.7258 72.8631 16.5354M72.8631 19.2663V16.5354M72.8631 19.2663C73.0037 19.0544 73.1859 18.9471 73.4057 18.9471M72.8631 16.5354C73.0037 16.3234 73.1859 16.2161 73.4057 16.2161M73.4057 18.9471V16.2161M73.4057 18.9471H74.1582M73.4057 16.2161H74.1582M74.1582 18.9471V16.2161M74.1582 18.9471C74.5661 18.9471 74.9186 18.7566 75.2176 18.3729M74.1582 16.2161C74.5661 16.2161 74.9186 16.0257 75.2176 15.6421M75.2176 18.3729V15.6421M75.2176 18.3729C75.5166 17.9679 75.6651 17.4796 75.6651 16.9056M75.2176 15.6421C75.5166 15.237 75.6651 14.7488 75.6651 14.1747M75.6651 16.9056V14.1747M75.6651 16.9056V6.70094V3.97005M75.6651 14.1747V3.97005M75.6651 3.97005C75.6651 3.41744 75.5166 2.93993 75.2176 2.53485C74.9186 2.12979 74.5661 1.92859 74.1582 1.92859H71.1443C70.7205 1.92859 70.3601 2.12979 70.0611 2.53485C69.7779 2.93993 69.6373 3.42817 69.6373 4.00225M69.6373 4.00225V6.73314V20.9886M69.6373 4.00225V18.2576M69.6373 20.9886V18.2576M69.6373 20.9886C69.6373 22.1152 69.9284 23.0837 70.5087 23.8911M69.6373 18.2576C69.6373 19.3843 69.9284 20.3527 70.5087 21.1602M70.5087 23.8911V21.1602M96.7583 22.3406V25.0714M96.7583 22.3406C97.166 22.3406 97.5187 22.15 97.8181 21.7665M96.7583 22.3406H80.1839M96.7583 25.0714C97.166 25.0714 97.5187 24.881 97.8181 24.4974M96.7583 25.0714H80.1839M97.8181 21.7665V24.4974M97.8181 21.7665C98.1165 21.3614 98.2653 20.8731 98.2653 20.2991M80.1839 22.3406C79.3365 22.3406 78.6235 21.9462 78.0433 21.1602M80.1839 22.3406V25.0714M97.8181 24.4974C98.1165 24.0923 98.2653 23.6041 98.2653 23.03V20.2991M80.1839 25.0714C79.3365 25.0714 78.6235 24.6771 78.0433 23.8911M98.2653 20.2991V3.97005C98.2653 3.41744 98.1165 2.93993 97.8181 2.53485C97.5187 2.12979 97.166 1.92859 96.7583 1.92859H93.7442C93.3208 1.92859 92.9599 2.12979 92.6633 2.53485C92.3804 2.93993 92.2399 3.42817 92.2399 4.00225V3.97005C92.2399 4.54413 92.0911 5.03236 91.792 5.43744C91.493 5.82105 91.1405 6.01152 90.7326 6.01152H80.1839C79.3523 6.01152 78.6394 6.41659 78.0433 7.22406C77.4632 8.01006 77.1721 8.96775 77.1721 10.0944M77.1721 10.0944V12.8253V20.9886M77.1721 10.0944V18.2576M77.1721 20.9886V18.2576M77.1721 20.9886C77.1721 22.1152 77.4632 23.0837 78.0433 23.8911M77.1721 18.2576C77.1721 19.3843 77.4632 20.3527 78.0433 21.1602M78.0433 23.8911V21.1602M83.1978 12.1359V14.8668C83.1978 14.3115 83.3384 13.834 83.6216 13.4316M83.1978 12.1359C83.1978 11.5806 83.3384 11.1031 83.6216 10.7007M83.1978 12.1359C83.1978 13.2626 83.489 14.2283 84.0692 15.0358C84.6652 15.8218 85.3801 16.2161 86.2117 16.2161H93.7442C94.1519 16.2161 94.5046 16.0257 94.804 15.6421C95.1025 15.237 95.2512 14.7488 95.2512 14.1747M83.6216 13.4316V10.7007M83.6216 13.4316C83.9206 13.0266 84.2811 12.8253 84.7048 12.8253M83.6216 10.7007C83.9206 10.2956 84.2811 10.0944 84.7048 10.0944M95.2512 14.1747V16.9056V14.8668M95.2512 14.1747V12.1359M84.7048 12.8253V10.0944M84.7048 12.8253H93.7442M84.7048 10.0944H93.7442M93.7442 12.8253V10.0944M93.7442 12.8253C94.1519 12.8253 94.5046 13.0266 94.804 13.4316M93.7442 10.0944C94.1519 10.0944 94.5046 10.2956 94.804 10.7007M94.804 13.4316V10.7007M94.804 13.4316C95.1025 13.834 95.2512 14.3115 95.2512 14.8668M94.804 10.7007C95.1025 11.1031 95.2512 11.5806 95.2512 12.1359M95.2512 14.8668V12.1359" stroke="#5A5A5A" stroke-width="4" stroke-linecap="round" stroke-linejoin="round"/>
<path d="M4.85062 22.3406C4.00309 22.3406 3.28823 21.9462 2.70802 21.1602C2.12783 20.3527 1.83673 19.3843 1.83673 18.2576V8.08518C1.83673 7.5111 1.97732 7.02286 2.26049 6.61778C2.55951 6.21272 2.91991 6.01152 3.34367 6.01152H6.35559C6.76549 6.01152 7.11797 6.21272 7.415 6.61778C7.71401 7.02286 7.86253 7.50037 7.86253 8.05298V14.1747C7.86253 14.7488 8.00312 15.237 8.28629 15.6421C8.58531 16.0257 8.9457 16.2161 9.36946 16.2161C9.77739 16.2161 10.1299 16.0257 10.4289 15.6421C10.7279 15.237 10.8764 14.7488 10.8764 14.1747V8.08518C10.8764 7.5111 11.017 7.02286 11.3001 6.61778C11.5992 6.21272 11.9596 6.01152 12.3834 6.01152H15.3973C15.8052 6.01152 16.1577 6.21272 16.4567 6.61778C16.7557 7.02286 16.9042 7.50037 16.9042 8.05298V14.1747C16.9042 14.7488 17.0448 15.237 17.3279 15.6421C17.625 16.0257 17.9854 16.2161 18.4091 16.2161C18.8191 16.2161 19.1716 16.0257 19.4686 15.6421C19.7676 15.237 19.9161 14.7488 19.9161 14.1747V8.08518C19.9161 7.5111 20.0567 7.02286 20.3399 6.61778C20.6388 6.21272 20.9993 6.01152 21.423 6.01152H24.4369C24.8449 6.01152 25.1973 6.21272 25.4964 6.61778C25.7954 7.02286 25.9439 7.50037 25.9439 8.05298V18.2576C25.9439 19.4058 25.6449 20.3742 25.0488 21.1602C24.4528 21.9462 23.7459 22.3406 22.93 22.3406H4.85062ZM30.4627 22.3406C29.6152 22.3406 28.9023 21.9462 28.3221 21.1602C27.7419 20.3527 27.4508 19.3843 27.4508 18.2576V10.0944C27.4508 8.96775 27.7419 8.01006 28.3221 7.22406C28.9182 6.4166 29.631 6.01152 30.4627 6.01152H45.5302C46.3618 6.01152 47.0688 6.4166 47.649 7.22406C48.245 8.03152 48.5441 8.98921 48.5441 10.0944V18.2576C48.5441 19.4058 48.245 20.3742 47.649 21.1602C47.053 21.9462 46.3461 22.3406 45.5302 22.3406H30.4627ZM41.0113 14.1747C41.4193 14.1747 41.7718 13.9842 42.0708 13.6006C42.3678 13.1982 42.5163 12.71 42.5163 12.1359C42.5163 11.5806 42.3678 11.1031 42.0708 10.7007C41.7718 10.2956 41.4193 10.0944 41.0113 10.0944H34.9836C34.5598 10.0944 34.1994 10.2956 33.9003 10.7007C33.6172 11.1031 33.4766 11.5806 33.4766 12.1359C33.4766 12.71 33.6172 13.1982 33.9003 13.6006C34.1994 13.9842 34.5598 14.1747 34.9836 14.1747H41.0113ZM51.558 22.3406C51.1342 22.3406 50.7738 22.15 50.4748 21.7665C50.1916 21.3614 50.051 20.8731 50.051 20.2991V8.08518C50.051 7.5111 50.1916 7.02286 50.4748 6.61778C50.7738 6.21272 51.1342 6.01152 51.558 6.01152H54.5719C54.9798 6.01152 55.3323 6.21272 55.6313 6.61778C55.9283 7.02286 56.0768 7.50037 56.0768 8.05298C56.0768 8.62706 56.2174 9.11529 56.5006 9.52037C56.7995 9.904 57.16 10.0944 57.5837 10.0944C57.9917 10.0944 58.3442 9.904 58.6432 9.52037C58.9422 9.11529 59.0907 8.62706 59.0907 8.05298V8.08518C59.0907 7.5111 59.2313 7.02286 59.5144 6.61778C59.8134 6.21272 60.1739 6.01152 60.5976 6.01152H65.1185C65.9502 6.01152 66.6571 6.4166 67.2373 7.22406C67.8334 8.03152 68.1304 8.98921 68.1304 10.0944V12.1359C68.1304 12.71 67.9819 13.1982 67.6849 13.6006C67.3858 13.9842 67.0334 14.1747 66.6254 14.1747H54.5719C54.148 14.1747 53.7877 14.3759 53.4887 14.781C53.2055 15.1861 53.0649 15.6636 53.0649 16.2161V20.2991C53.0649 20.8731 52.9164 21.3614 52.6174 21.7665C52.3184 22.15 51.9659 22.3406 51.558 22.3406ZM72.6512 22.3406C71.8036 22.3406 71.0888 21.9462 70.5087 21.1602C69.9284 20.3527 69.6373 19.3843 69.6373 18.2576V4.00225C69.6373 3.42817 69.7779 2.93993 70.0611 2.53485C70.3601 2.12979 70.7205 1.92859 71.1443 1.92859H74.1582C74.5661 1.92859 74.9186 2.12979 75.2176 2.53485C75.5166 2.93993 75.6651 3.41744 75.6651 3.97005V14.1747C75.6651 14.7488 75.5166 15.237 75.2176 15.6421C74.9186 16.0257 74.5661 16.2161 74.1582 16.2161H73.4057C73.1859 16.2161 73.0037 16.3234 72.8631 16.5354C72.7225 16.7258 72.6512 16.9619 72.6512 17.2383C72.6512 17.536 72.7225 17.7801 72.8631 17.9705C73.0037 18.1611 73.1859 18.2576 73.4057 18.2576H74.1582C74.5661 18.2576 74.9186 18.4589 75.2176 18.8639C75.5166 19.269 75.6651 19.7465 75.6651 20.2991C75.6651 20.8731 75.5166 21.3614 75.2176 21.7665C74.9186 22.15 74.5661 22.3406 74.1582 22.3406H72.6512ZM80.1839 22.3406C79.3364 22.3406 78.6235 21.9462 78.0433 21.1602C77.4631 20.3527 77.1721 19.3843 77.1721 18.2576V10.0944C77.1721 8.96775 77.4631 8.01006 78.0433 7.22406C78.6394 6.4166 79.3523 6.01152 80.1839 6.01152H90.7326C91.1405 6.01152 91.493 5.82105 91.792 5.43744C92.0911 5.03236 92.2399 4.54413 92.2399 3.97005V4.00225C92.2399 3.42817 92.3804 2.93993 92.6633 2.53485C92.9599 2.12979 93.3208 1.92859 93.7442 1.92859H96.7583C97.166 1.92859 97.5187 2.12979 97.8181 2.53485C98.1165 2.93993 98.2653 3.41744 98.2653 3.97005V20.2991C98.2653 20.8731 98.1165 21.3614 97.8181 21.7665C97.5187 22.15 97.166 22.3406 96.7583 22.3406H80.1839ZM93.7442 16.2161C94.1519 16.2161 94.5046 16.0257 94.804 15.6421C95.1025 15.237 95.2512 14.7488 95.2512 14.1747V12.1359C95.2512 11.5806 95.1025 11.1031 94.804 10.7007C94.5046 10.2956 94.1519 10.0944 93.7442 10.0944H84.7048C84.2811 10.0944 83.9206 10.2956 83.6216 10.7007C83.3384 11.1031 83.1978 11.5806 83.1978 12.1359C83.1978 13.2626 83.489 14.2283 84.0691 15.0358C84.6652 15.8218 85.3801 16.2161 86.2117 16.2161H93.7442Z" fill="white"/>
</g>
<defs>
<clipPath id="clip0_118_1728">
<rect width="180" height="27" fill="white"/>
</clipPath>
</defs>
</svg>
